<svg width="52" height="39" viewBox="0 0 52 39" fill="none" xmlns="http://www.w3.org/2000/svg">
<g clip-path="url(#clip0_169_2)">
<path d="M27.7349 23.4013H0V3.38019C0 1.47345 1.47345 0 3.38019 0H24.4414C26.2615 0 27.7349 1.47345 27.7349 3.38019V23.4013ZM1.73346 21.6678H26.0014V3.38019C26.0014 2.51351 25.308 1.73346 24.3547 1.73346H3.38019C2.42677 1.73346 1.73346 2.42687 1.73346 3.38019V21.6678Z" fill="#333333"/>
<path d="M41.6021 39.0021C38.222 39.0021 35.5352 36.3153 35.5352 32.9351C35.5352 29.5549 38.222 26.8682 41.6021 26.8682C44.9823 26.8682 47.6691 29.5549 47.6691 32.9351C47.6691 36.3153 44.9823 39.0021 41.6021 39.0021ZM41.6021 28.6015C39.1754 28.6015 37.2685 30.5083 37.2685 32.9351C37.2685 35.362 39.1753 37.2687 41.6021 37.2687C44.0289 37.2687 45.9358 35.362 45.9358 32.9351C45.9358 30.5083 44.0289 28.6015 41.6021 28.6015Z" fill="#333333"/>
<path d="M10.4009 39.0021C7.02076 39.0021 4.33398 36.3153 4.33398 32.9351C4.33398 29.5549 7.02076 26.8682 10.4009 26.8682C13.7811 26.8682 16.4679 29.5549 16.4679 32.9351C16.4679 36.3153 13.7811 39.0021 10.4009 39.0021ZM10.4009 28.6015C7.97418 28.6015 6.06734 30.5083 6.06734 32.9351C6.06734 35.362 7.97408 37.2687 10.4009 37.2687C12.8278 37.2687 14.7345 35.362 14.7345 32.9351C14.7345 30.5083 12.8277 28.6015 10.4009 28.6015Z" fill="#333333"/>
<path d="M50.7033 23.4013H35.9691C35.4491 23.4013 35.1025 23.0547 35.1025 22.5346C35.1025 22.0146 35.4491 21.668 35.9691 21.668H50.7033C51.2234 21.668 51.57 22.0146 51.57 22.5346C51.57 23.0546 51.2234 23.4013 50.7033 23.4013Z" fill="#333333"/>
<path d="M13.8674 15.6008H0.866681C0.346652 15.6008 0 15.2541 0 14.7341C0 14.2141 0.346652 13.8674 0.866681 13.8674H13.8674C14.3874 13.8674 14.7341 14.2141 14.7341 14.7341C14.7342 15.254 14.3874 15.6008 13.8674 15.6008Z" fill="#333333"/>
<path d="M10.4006 11.2671H0.866681C0.346652 11.2671 0 10.9204 0 10.4004C0 9.88034 0.346652 9.53369 0.866681 9.53369H10.4006C10.9206 9.53369 11.2673 9.88034 11.2673 10.4004C11.2673 10.9204 10.9206 11.2671 10.4006 11.2671Z" fill="#333333"/>
<path d="M49.2294 33.8021H45.9359V32.9354C45.9359 30.5086 44.0291 28.6018 41.6023 28.6018C39.1755 28.6018 37.2686 30.5085 37.2686 32.9354V33.8021H26.0015V6.93384H36.6621C37.8755 6.93384 38.9156 7.45387 39.6956 8.40729L45.4159 15.6011L45.5026 15.6877H49.1428C50.7029 15.6877 51.9163 16.9878 51.9163 18.4612V31.0285C52.0029 32.502 50.7029 33.8021 49.2294 33.8021ZM47.5827 32.0686H49.1428C49.7494 32.0686 50.1828 31.5486 50.1828 30.9419V18.4612C50.1828 17.8545 49.6628 17.4212 49.1428 17.4212H45.5026C44.8959 17.4212 44.3759 17.1611 44.0291 16.7278L38.3088 9.53398C37.9622 8.92732 37.3554 8.6673 36.6621 8.6673H27.7349V32.0686H35.622C36.0554 29.1218 38.5688 26.8683 41.6024 26.8683C44.6359 26.8683 47.1493 29.1218 47.5827 32.0686Z" fill="#333333"/>
<path d="M27.7349 33.802H14.7342V32.9353C14.7342 30.5086 12.8274 28.6017 10.4006 28.6017C7.97371 28.6017 6.06697 30.5085 6.06697 32.9353V33.802H2.60014C1.1267 33.802 0 32.6753 0 31.2019V21.668H27.7349V33.802ZM16.3809 32.0685H26.0014V23.4014H1.73346V31.2019C1.73346 31.7219 2.08012 32.0685 2.60014 32.0685H4.42025C4.85364 29.1218 7.36704 26.8683 10.4006 26.8683C13.4341 26.8683 15.9475 29.1218 16.3809 32.0685Z" fill="#333333"/>
<path d="M12.1335 32.9351C12.1335 33.8885 11.3534 34.6686 10.4 34.6686C9.44654 34.6686 8.6665 33.8885 8.6665 32.9351C8.6665 31.9817 9.44654 31.2017 10.4 31.2017C11.3534 31.2017 12.1335 31.9818 12.1335 32.9351Z" fill="#333333"/>
<path d="M43.336 32.9351C43.336 33.8885 42.5559 34.6686 41.6025 34.6686C40.6491 34.6686 39.8691 33.8885 39.8691 32.9351C39.8691 31.9817 40.6491 31.2017 41.6025 31.2017C42.5559 31.2018 43.336 31.9818 43.336 32.9351Z" fill="#333333"/>
<path d="M44.8091 14.7343H33.5418C32.2418 14.7343 31.2017 13.6942 31.2017 12.3941V6.93384H36.662C37.8754 6.93384 38.9155 7.45387 39.6955 8.40729L44.8091 14.7343ZM32.9352 8.6673V12.3941C32.9352 12.7408 33.1952 13.0008 33.5418 13.0008H41.2556L38.3955 9.44724C37.9621 8.92721 37.3554 8.6672 36.662 8.6672L32.9352 8.6673Z" fill="#333333"/>
</g>
<defs>
<clipPath id="clip0_169_2">
<rect width="52" height="39" fill="white"/>
</clipPath>
</defs>
</svg>
